<mxfile host="65bd71144e">
    <diagram id="YfftV5SUbpp-WOaz0dll" name="Page-1">
        <mxGraphModel dx="1106" dy="701" grid="1" gridSize="10" guides="1" tooltips="1" connect="1" arrows="1" fold="1" page="1" pageScale="1" pageWidth="850" pageHeight="1100" background="#F0F0F0" math="0" shadow="0">
            <root>
                <mxCell id="0"/>
                <mxCell id="1" parent="0"/>
                <mxCell id="42" value="" style="rounded=0;whiteSpace=wrap;html=1;labelBackgroundColor=none;fontColor=#333333;fillColor=#f5f5f5;strokeColor=#666666;" vertex="1" parent="1">
                    <mxGeometry width="1240" height="890" as="geometry"/>
                </mxCell>
                <mxCell id="7" style="edgeStyle=none;html=1;exitX=0.5;exitY=1;exitDx=0;exitDy=0;entryX=0.5;entryY=0;entryDx=0;entryDy=0;fontColor=#F0F0F0;labelBackgroundColor=none;strokeColor=#18141D;" edge="1" parent="1" source="3" target="4">
                    <mxGeometry relative="1" as="geometry">
                        <Array as="points">
                            <mxPoint x="424" y="530"/>
                            <mxPoint x="176" y="530"/>
                        </Array>
                    </mxGeometry>
                </mxCell>
                <mxCell id="8" style="edgeStyle=none;html=1;exitX=0.5;exitY=1;exitDx=0;exitDy=0;entryX=0.5;entryY=0;entryDx=0;entryDy=0;fontColor=#F0F0F0;labelBackgroundColor=none;strokeColor=#18141D;" edge="1" parent="1" source="3" target="5">
                    <mxGeometry relative="1" as="geometry"/>
                </mxCell>
                <mxCell id="9" style="edgeStyle=none;html=1;exitX=0.5;exitY=1;exitDx=0;exitDy=0;entryX=0.5;entryY=0;entryDx=0;entryDy=0;fontColor=#F0F0F0;labelBackgroundColor=none;strokeColor=#18141D;" edge="1" parent="1" source="3" target="6">
                    <mxGeometry relative="1" as="geometry">
                        <Array as="points">
                            <mxPoint x="424" y="530"/>
                            <mxPoint x="676" y="530"/>
                        </Array>
                    </mxGeometry>
                </mxCell>
                <mxCell id="3" value="&lt;table border=&quot;1&quot; width=&quot;100%&quot; height=&quot;100%&quot; cellpadding=&quot;4&quot; style=&quot;width:100%;height:100%;border-collapse:collapse;&quot;&gt;&lt;tbody&gt;&lt;tr&gt;&lt;th align=&quot;center&quot;&gt;Home Page&lt;/th&gt;&lt;/tr&gt;&lt;tr&gt;&lt;td&gt;&lt;div style=&quot;text-align: center;&quot;&gt;&lt;span style=&quot;&quot;&gt;Shows:&lt;/span&gt;&lt;/div&gt;- Current Pick-Up ETA&lt;br&gt;- Map&lt;br&gt;- Child being picked up&lt;br&gt;- Parent Name&lt;br&gt;- Pick up location&lt;/td&gt;&lt;/tr&gt;&lt;tr&gt;&lt;td&gt;&lt;div style=&quot;text-align: center;&quot;&gt;&lt;span style=&quot;&quot;&gt;Links to:&lt;/span&gt;&lt;/div&gt;- Child Registration&lt;br&gt;- Organizations (pick up places)&lt;br&gt;- Settings&lt;/td&gt;&lt;/tr&gt;&lt;/tbody&gt;&lt;/table&gt;" style="text;html=1;whiteSpace=wrap;strokeColor=#666666;fillColor=#f5f5f5;overflow=fill;strokeWidth=2;fontColor=#333333;labelBackgroundColor=none;" vertex="1" parent="1">
                    <mxGeometry x="326" y="290" width="195" height="200" as="geometry"/>
                </mxCell>
                <mxCell id="37" style="edgeStyle=none;html=1;exitX=0.75;exitY=1;exitDx=0;exitDy=0;entryX=0.25;entryY=1;entryDx=0;entryDy=0;fontColor=#F0F0F0;labelBackgroundColor=none;strokeColor=#18141D;" edge="1" parent="1" source="4" target="5">
                    <mxGeometry relative="1" as="geometry">
                        <Array as="points">
                            <mxPoint x="224" y="810"/>
                            <mxPoint x="375" y="810"/>
                        </Array>
                    </mxGeometry>
                </mxCell>
                <mxCell id="38" style="edgeStyle=none;html=1;exitX=0.25;exitY=1;exitDx=0;exitDy=0;entryX=0.75;entryY=1;entryDx=0;entryDy=0;fontColor=#F0F0F0;labelBackgroundColor=none;strokeColor=#18141D;" edge="1" parent="1" source="4" target="6">
                    <mxGeometry relative="1" as="geometry">
                        <Array as="points">
                            <mxPoint x="127" y="840"/>
                            <mxPoint x="724" y="840"/>
                        </Array>
                    </mxGeometry>
                </mxCell>
                <mxCell id="4" value="&lt;table border=&quot;1&quot; width=&quot;100%&quot; height=&quot;100%&quot; cellpadding=&quot;4&quot; style=&quot;width:100%;height:100%;border-collapse:collapse;&quot;&gt;&lt;tbody&gt;&lt;tr&gt;&lt;th align=&quot;center&quot;&gt;Child Registration&lt;/th&gt;&lt;/tr&gt;&lt;tr&gt;&lt;td&gt;&lt;div style=&quot;text-align: center;&quot;&gt;&lt;span style=&quot;&quot;&gt;Shows:&lt;/span&gt;&lt;/div&gt;- Current Children Information&lt;br&gt;- Add/Remove/Edit Child Information&lt;br&gt;&lt;/td&gt;&lt;/tr&gt;&lt;tr&gt;&lt;td&gt;&lt;div style=&quot;text-align: center;&quot;&gt;&lt;span style=&quot;&quot;&gt;Links to:&lt;/span&gt;&lt;/div&gt;- Organizations (pick up places)&lt;br&gt;- Settings&lt;br&gt;- Home&lt;/td&gt;&lt;/tr&gt;&lt;/tbody&gt;&lt;/table&gt;" style="text;html=1;whiteSpace=wrap;strokeColor=#666666;fillColor=#f5f5f5;overflow=fill;strokeWidth=2;fontColor=#333333;labelBackgroundColor=none;" vertex="1" parent="1">
                    <mxGeometry x="78" y="570" width="195" height="200" as="geometry"/>
                </mxCell>
                <mxCell id="33" style="edgeStyle=none;html=1;exitX=0.5;exitY=1;exitDx=0;exitDy=0;entryX=0.5;entryY=1;entryDx=0;entryDy=0;fontColor=#F0F0F0;labelBackgroundColor=none;strokeColor=#18141D;" edge="1" parent="1" source="5" target="4">
                    <mxGeometry relative="1" as="geometry">
                        <Array as="points">
                            <mxPoint x="424" y="820"/>
                            <mxPoint x="176" y="820"/>
                        </Array>
                    </mxGeometry>
                </mxCell>
                <mxCell id="34" style="edgeStyle=none;html=1;exitX=0.5;exitY=1;exitDx=0;exitDy=0;entryX=0.5;entryY=1;entryDx=0;entryDy=0;fontColor=#F0F0F0;labelBackgroundColor=none;strokeColor=#18141D;" edge="1" parent="1" source="5" target="6">
                    <mxGeometry relative="1" as="geometry">
                        <Array as="points">
                            <mxPoint x="424" y="820"/>
                            <mxPoint x="676" y="820"/>
                        </Array>
                    </mxGeometry>
                </mxCell>
                <mxCell id="5" value="&lt;table border=&quot;1&quot; width=&quot;100%&quot; height=&quot;100%&quot; cellpadding=&quot;4&quot; style=&quot;width:100%;height:100%;border-collapse:collapse;&quot;&gt;&lt;tbody&gt;&lt;tr&gt;&lt;th align=&quot;center&quot;&gt;Organizations&lt;/th&gt;&lt;/tr&gt;&lt;tr&gt;&lt;td&gt;&lt;div style=&quot;text-align: center;&quot;&gt;&lt;span style=&quot;&quot;&gt;Shows:&lt;/span&gt;&lt;/div&gt;- Current Organizations (schools)&lt;br&gt;- Pick-Up Locations&lt;br&gt;- Add/Remove Organizations&lt;br&gt;&lt;/td&gt;&lt;/tr&gt;&lt;tr&gt;&lt;td&gt;&lt;div style=&quot;text-align: center;&quot;&gt;&lt;span style=&quot;&quot;&gt;Links to:&lt;/span&gt;&lt;/div&gt;- Child Registration&lt;br&gt;- Settings&lt;br&gt;- Home&lt;/td&gt;&lt;/tr&gt;&lt;/tbody&gt;&lt;/table&gt;" style="text;html=1;whiteSpace=wrap;strokeColor=#666666;fillColor=#f5f5f5;overflow=fill;strokeWidth=2;fontColor=#333333;labelBackgroundColor=none;" vertex="1" parent="1">
                    <mxGeometry x="326" y="570" width="195" height="200" as="geometry"/>
                </mxCell>
                <mxCell id="31" style="edgeStyle=none;html=1;exitX=1;exitY=0.5;exitDx=0;exitDy=0;entryX=1;entryY=0.5;entryDx=0;entryDy=0;fontColor=#F0F0F0;labelBackgroundColor=none;strokeColor=#18141D;" edge="1" parent="1" source="6" target="10">
                    <mxGeometry relative="1" as="geometry">
                        <Array as="points">
                            <mxPoint x="840" y="670"/>
                            <mxPoint x="840" y="480"/>
                            <mxPoint x="550" y="480"/>
                            <mxPoint x="550" y="130"/>
                        </Array>
                    </mxGeometry>
                </mxCell>
                <mxCell id="36" style="edgeStyle=none;html=1;exitX=0.25;exitY=1;exitDx=0;exitDy=0;entryX=0.75;entryY=1;entryDx=0;entryDy=0;fontColor=#F0F0F0;labelBackgroundColor=none;strokeColor=#18141D;" edge="1" parent="1" source="6" target="5">
                    <mxGeometry relative="1" as="geometry">
                        <Array as="points">
                            <mxPoint x="627" y="810"/>
                            <mxPoint x="472" y="810"/>
                        </Array>
                    </mxGeometry>
                </mxCell>
                <mxCell id="39" style="edgeStyle=none;html=1;exitX=1;exitY=1;exitDx=0;exitDy=0;entryX=0;entryY=1;entryDx=0;entryDy=0;fontColor=#F0F0F0;labelBackgroundColor=none;strokeColor=#18141D;" edge="1" parent="1" source="6" target="4">
                    <mxGeometry relative="1" as="geometry">
                        <Array as="points">
                            <mxPoint x="773" y="860"/>
                            <mxPoint x="78" y="860"/>
                        </Array>
                    </mxGeometry>
                </mxCell>
                <mxCell id="6" value="&lt;table border=&quot;1&quot; width=&quot;100%&quot; height=&quot;100%&quot; cellpadding=&quot;4&quot; style=&quot;width:100%;height:100%;border-collapse:collapse;&quot;&gt;&lt;tbody&gt;&lt;tr&gt;&lt;th align=&quot;center&quot;&gt;Settings&lt;/th&gt;&lt;/tr&gt;&lt;tr&gt;&lt;td&gt;&lt;div style=&quot;text-align: center;&quot;&gt;&lt;span style=&quot;&quot;&gt;Shows:&lt;/span&gt;&lt;/div&gt;- Parent Information&lt;br&gt;- Account Information&lt;br&gt;- Log Out&lt;/td&gt;&lt;/tr&gt;&lt;tr&gt;&lt;td&gt;&lt;div style=&quot;text-align: center;&quot;&gt;&lt;span style=&quot;&quot;&gt;Links to:&lt;/span&gt;&lt;/div&gt;- Child Registration&lt;br&gt;- Organizations (pick up places)&lt;br&gt;- Home&lt;br&gt;&lt;/td&gt;&lt;/tr&gt;&lt;/tbody&gt;&lt;/table&gt;" style="text;html=1;whiteSpace=wrap;strokeColor=#666666;fillColor=#f5f5f5;overflow=fill;strokeWidth=2;fontColor=#333333;labelBackgroundColor=none;" vertex="1" parent="1">
                    <mxGeometry x="578" y="570" width="195" height="200" as="geometry"/>
                </mxCell>
                <mxCell id="11" style="edgeStyle=none;html=1;exitX=0.5;exitY=1;exitDx=0;exitDy=0;entryX=0.5;entryY=0;entryDx=0;entryDy=0;fontColor=#F0F0F0;labelBackgroundColor=none;strokeColor=#18141D;" edge="1" parent="1" source="10" target="3">
                    <mxGeometry relative="1" as="geometry"/>
                </mxCell>
                <mxCell id="10" value="&lt;table border=&quot;1&quot; width=&quot;100%&quot; height=&quot;100%&quot; cellpadding=&quot;4&quot; style=&quot;width:100%;height:100%;border-collapse:collapse;&quot;&gt;&lt;tbody&gt;&lt;tr&gt;&lt;th align=&quot;center&quot;&gt;Login&lt;/th&gt;&lt;/tr&gt;&lt;tr&gt;&lt;td&gt;&lt;div style=&quot;text-align: center;&quot;&gt;&lt;span style=&quot;&quot;&gt;Input:&lt;/span&gt;&lt;/div&gt;&lt;div style=&quot;&quot;&gt;- Username&lt;/div&gt;&lt;div style=&quot;&quot;&gt;- Password&lt;/div&gt;&lt;/td&gt;&lt;/tr&gt;&lt;tr&gt;&lt;td&gt;&lt;div style=&quot;text-align: center;&quot;&gt;&lt;span style=&quot;&quot;&gt;Links to:&lt;/span&gt;&lt;/div&gt;- Home (upon authorization)&lt;/td&gt;&lt;/tr&gt;&lt;/tbody&gt;&lt;/table&gt;" style="text;html=1;whiteSpace=wrap;strokeColor=#666666;fillColor=#f5f5f5;overflow=fill;strokeWidth=2;fontColor=#333333;labelBackgroundColor=none;" vertex="1" parent="1">
                    <mxGeometry x="326" y="30" width="195" height="200" as="geometry"/>
                </mxCell>
                <mxCell id="12" value="Login Process Chart" style="swimlane;childLayout=stackLayout;resizeParent=1;resizeParentMax=0;startSize=20;html=1;fontColor=#333333;labelBackgroundColor=none;fillColor=#f5f5f5;strokeColor=#666666;" vertex="1" parent="1">
                    <mxGeometry x="578" y="30" width="630" height="180" as="geometry"/>
                </mxCell>
                <mxCell id="13" value="Input" style="swimlane;startSize=20;html=1;fontColor=#333333;labelBackgroundColor=none;fillColor=#f5f5f5;strokeColor=#666666;" vertex="1" parent="12">
                    <mxGeometry y="20" width="90" height="160" as="geometry">
                        <mxRectangle y="20" width="40" height="460" as="alternateBounds"/>
                    </mxGeometry>
                </mxCell>
                <mxCell id="14" value="Username" style="text;html=1;align=center;verticalAlign=middle;resizable=0;points=[];autosize=1;strokeColor=none;fillColor=none;fontColor=#333333;labelBackgroundColor=none;" vertex="1" parent="13">
                    <mxGeometry x="4.999999999999545" y="20" width="80" height="30" as="geometry"/>
                </mxCell>
                <mxCell id="15" value="Password" style="text;html=1;align=center;verticalAlign=middle;resizable=0;points=[];autosize=1;strokeColor=none;fillColor=none;fontColor=#333333;labelBackgroundColor=none;" vertex="1" parent="13">
                    <mxGeometry x="4.999999999999545" y="50" width="80" height="30" as="geometry"/>
                </mxCell>
                <mxCell id="16" value="Process" style="swimlane;startSize=20;html=1;fontColor=#333333;labelBackgroundColor=none;fillColor=#f5f5f5;swimlaneLine=1;strokeColor=#666666;" vertex="1" parent="12">
                    <mxGeometry x="90" y="20" width="410" height="160" as="geometry"/>
                </mxCell>
                <mxCell id="24" value="hashed_username = hash(Username)" style="text;html=1;align=center;verticalAlign=middle;resizable=0;points=[];autosize=1;strokeColor=none;fillColor=none;fontColor=#333333;labelBackgroundColor=none;" vertex="1" parent="16">
                    <mxGeometry y="20" width="230" height="30" as="geometry"/>
                </mxCell>
                <mxCell id="25" value="hashed_password = hash(Password)" style="text;html=1;align=center;verticalAlign=middle;resizable=0;points=[];autosize=1;strokeColor=none;fillColor=none;fontColor=#333333;labelBackgroundColor=none;" vertex="1" parent="16">
                    <mxGeometry y="50" width="220" height="30" as="geometry"/>
                </mxCell>
                <mxCell id="26" value="if(user_database.contains(hashed_username and hashed_password) {" style="text;html=1;align=center;verticalAlign=middle;resizable=0;points=[];autosize=1;strokeColor=none;fillColor=none;fontColor=#333333;labelBackgroundColor=none;" vertex="1" parent="16">
                    <mxGeometry y="80" width="400" height="30" as="geometry"/>
                </mxCell>
                <mxCell id="28" value="System.authorize_login" style="text;html=1;align=center;verticalAlign=middle;resizable=0;points=[];autosize=1;strokeColor=none;fillColor=none;fontColor=#333333;labelBackgroundColor=none;" vertex="1" parent="16">
                    <mxGeometry x="35" y="110" width="150" height="30" as="geometry"/>
                </mxCell>
                <mxCell id="22" value="Ouput" style="swimlane;startSize=20;html=1;fontColor=#333333;labelBackgroundColor=none;fillColor=#f5f5f5;strokeColor=#666666;" vertex="1" parent="12">
                    <mxGeometry x="500" y="20" width="130" height="160" as="geometry"/>
                </mxCell>
                <mxCell id="23" value="Route to Home Page" style="text;html=1;align=center;verticalAlign=middle;resizable=0;points=[];autosize=1;strokeColor=none;fillColor=none;fontColor=#333333;labelBackgroundColor=none;" vertex="1" parent="22">
                    <mxGeometry x="-5" y="20" width="140" height="30" as="geometry"/>
                </mxCell>
                <mxCell id="32" value="Log out" style="text;html=1;strokeColor=none;fillColor=none;align=center;verticalAlign=middle;whiteSpace=wrap;rounded=0;fontColor=#333333;labelBackgroundColor=none;" vertex="1" parent="1">
                    <mxGeometry x="780" y="640" width="60" height="30" as="geometry"/>
                </mxCell>
                <mxCell id="43" value="Log in" style="text;html=1;strokeColor=none;fillColor=none;align=center;verticalAlign=middle;whiteSpace=wrap;rounded=0;fontColor=#333333;labelBackgroundColor=none;" vertex="1" parent="1">
                    <mxGeometry x="420" y="250" width="60" height="30" as="geometry"/>
                </mxCell>
                <mxCell id="44" value="menu navigation" style="text;html=1;strokeColor=none;fillColor=none;align=center;verticalAlign=middle;whiteSpace=wrap;rounded=0;fontColor=#333333;labelBackgroundColor=none;" vertex="1" parent="1">
                    <mxGeometry x="420" y="496" width="110" height="29" as="geometry"/>
                </mxCell>
                <mxCell id="45" value="&lt;h1&gt;Login Process Chart:&lt;/h1&gt;&lt;div&gt;When the username and password are input, they are hashed using the Argon2 hash. According to best security practice, all user information is to be encrypted with a one-way encryption function (hashing) before being stored. To verify user information, the inputted user and pass are hashed in the same way it is first stored during registration and compared to existing database records.&lt;/div&gt;" style="whiteSpace=wrap;html=1;rotation=0;labelBackgroundColor=none;fontColor=#333333;fillColor=#f5f5f5;strokeColor=#666666;align=left;" vertex="1" parent="1">
                    <mxGeometry x="578" y="220" width="632" height="120" as="geometry"/>
                </mxCell>
                <mxCell id="59" style="edgeStyle=none;html=1;exitX=1;exitY=0.5;exitDx=0;exitDy=0;entryX=0;entryY=0.25;entryDx=0;entryDy=0;labelBackgroundColor=none;strokeColor=#18141D;fontSize=13;fontColor=#F0F0F0;" edge="1" parent="1" source="46" target="52">
                    <mxGeometry relative="1" as="geometry">
                        <Array as="points">
                            <mxPoint x="270" y="130"/>
                            <mxPoint x="270" y="260"/>
                            <mxPoint x="20" y="260"/>
                            <mxPoint x="20" y="340"/>
                        </Array>
                    </mxGeometry>
                </mxCell>
                <mxCell id="46" value="&lt;table border=&quot;1&quot; width=&quot;100%&quot; height=&quot;100%&quot; cellpadding=&quot;4&quot; style=&quot;width:100%;height:100%;border-collapse:collapse;&quot;&gt;&lt;tbody&gt;&lt;tr&gt;&lt;th align=&quot;center&quot;&gt;Registration&lt;/th&gt;&lt;/tr&gt;&lt;tr&gt;&lt;td&gt;&lt;div style=&quot;text-align: center;&quot;&gt;&lt;span style=&quot;&quot;&gt;Input:&lt;/span&gt;&lt;/div&gt;&lt;div style=&quot;&quot;&gt;- Username&lt;/div&gt;&lt;div style=&quot;&quot;&gt;- Password&lt;/div&gt;&lt;div style=&quot;&quot;&gt;- Confirmed Password&lt;/div&gt;&lt;div style=&quot;&quot;&gt;- Parent Name&lt;/div&gt;&lt;div style=&quot;&quot;&gt;- Parent Email&lt;/div&gt;&lt;div style=&quot;&quot;&gt;- etc&lt;/div&gt;&lt;/td&gt;&lt;/tr&gt;&lt;tr&gt;&lt;td&gt;&lt;div style=&quot;text-align: center;&quot;&gt;&lt;span style=&quot;&quot;&gt;Links to:&lt;/span&gt;&lt;/div&gt;- Login (Upon registration)&lt;/td&gt;&lt;/tr&gt;&lt;/tbody&gt;&lt;/table&gt;" style="text;html=1;whiteSpace=wrap;strokeColor=#666666;fillColor=#f5f5f5;overflow=fill;strokeWidth=2;fontColor=#333333;labelBackgroundColor=none;" vertex="1" parent="1">
                    <mxGeometry x="40" y="30" width="195" height="200" as="geometry"/>
                </mxCell>
                <mxCell id="49" value="No account found" style="text;html=1;align=center;verticalAlign=middle;whiteSpace=wrap;rounded=0;labelBackgroundColor=none;fontSize=13;fillColor=none;fontColor=#333333;strokeColor=none;" vertex="1" parent="1">
                    <mxGeometry x="230" y="80" width="100" height="30" as="geometry"/>
                </mxCell>
                <mxCell id="50" value="Successful registration" style="text;html=1;align=center;verticalAlign=middle;whiteSpace=wrap;rounded=0;labelBackgroundColor=none;fontSize=13;fillColor=none;fontColor=#333333;strokeColor=none;" vertex="1" parent="1">
                    <mxGeometry x="230" y="30" width="100" height="30" as="geometry"/>
                </mxCell>
                <mxCell id="58" style="edgeStyle=none;html=1;exitX=1;exitY=0.25;exitDx=0;exitDy=0;entryX=0;entryY=0.5;entryDx=0;entryDy=0;labelBackgroundColor=none;strokeColor=#18141D;fontSize=13;fontColor=#F0F0F0;" edge="1" parent="1" source="52" target="10">
                    <mxGeometry relative="1" as="geometry">
                        <Array as="points">
                            <mxPoint x="290" y="340"/>
                            <mxPoint x="290" y="130"/>
                        </Array>
                    </mxGeometry>
                </mxCell>
                <mxCell id="52" value="&lt;table border=&quot;1&quot; width=&quot;100%&quot; height=&quot;100%&quot; cellpadding=&quot;4&quot; style=&quot;width:100%;height:100%;border-collapse:collapse;&quot;&gt;&lt;tbody&gt;&lt;tr&gt;&lt;th align=&quot;center&quot;&gt;User Database&lt;/th&gt;&lt;/tr&gt;&lt;tr&gt;&lt;td&gt;&lt;div style=&quot;&quot;&gt;&lt;span style=&quot;background-color: initial;&quot;&gt;Key: Username&lt;/span&gt;&lt;/div&gt;&lt;div style=&quot;&quot;&gt;&lt;span style=&quot;background-color: initial;&quot;&gt;Value: Password&lt;/span&gt;&lt;br&gt;&lt;/div&gt;&lt;/td&gt;&lt;/tr&gt;&lt;tr&gt;&lt;td&gt;&lt;div style=&quot;text-align: center;&quot;&gt;The Key being the Username allows instant look-up time, meaning there will be no lag during log in or registration at any time.&lt;/div&gt;&lt;/td&gt;&lt;/tr&gt;&lt;/tbody&gt;&lt;/table&gt;" style="text;html=1;whiteSpace=wrap;strokeColor=#666666;fillColor=#f5f5f5;overflow=fill;strokeWidth=2;fontColor=#333333;labelBackgroundColor=none;" vertex="1" parent="1">
                    <mxGeometry x="40" y="290" width="195" height="200" as="geometry"/>
                </mxCell>
                <mxCell id="56" style="edgeStyle=none;html=1;exitX=0;exitY=0.75;exitDx=0;exitDy=0;entryX=1;entryY=0.75;entryDx=0;entryDy=0;labelBackgroundColor=none;strokeColor=#18141D;fontSize=13;fontColor=#F0F0F0;" edge="1" parent="1">
                    <mxGeometry relative="1" as="geometry">
                        <mxPoint x="326" y="110" as="sourcePoint"/>
                        <mxPoint x="235" y="110" as="targetPoint"/>
                    </mxGeometry>
                </mxCell>
                <mxCell id="57" style="edgeStyle=none;html=1;exitX=0;exitY=0.75;exitDx=0;exitDy=0;entryX=1;entryY=0.75;entryDx=0;entryDy=0;labelBackgroundColor=none;strokeColor=#18141D;fontSize=13;fontColor=#F0F0F0;" edge="1" parent="1">
                    <mxGeometry relative="1" as="geometry">
                        <mxPoint x="235" y="60" as="sourcePoint"/>
                        <mxPoint x="326" y="60" as="targetPoint"/>
                    </mxGeometry>
                </mxCell>
                <mxCell id="61" value="Storage" style="text;html=1;align=center;verticalAlign=middle;whiteSpace=wrap;rounded=0;labelBackgroundColor=none;fontSize=13;fillColor=none;fontColor=#333333;strokeColor=none;" vertex="1" parent="1">
                    <mxGeometry x="87.5" y="240" width="100" height="30" as="geometry"/>
                </mxCell>
                <mxCell id="62" value="Retrieval" style="text;html=1;align=center;verticalAlign=middle;whiteSpace=wrap;rounded=0;labelBackgroundColor=none;fontSize=13;fillColor=none;fontColor=#333333;strokeColor=none;" vertex="1" parent="1">
                    <mxGeometry x="270" y="243" width="100" height="30" as="geometry"/>
                </mxCell>
            </root>
        </mxGraphModel>
    </diagram>
</mxfile>